<svg version="1.1" xmlns="http://www.w3.org/2000/svg" xmlns:xlink="http://www.w3.org/1999/xlink" width="188.5" height="118" viewBox="0,0,188.5,118"><g transform="translate(-145.75,-121)"><g data-paper-data="{&quot;isPaintingLayer&quot;:true}" fill-rule="nonzero" stroke-linejoin="miter" stroke-miterlimit="10" stroke-dasharray="" stroke-dashoffset="0" style="mix-blend-mode: normal"><path d="M152,235c0,0 -5,-2.45985 -5,-8c0,-13.27272 0,-69.09625 0,-93.5c0,-7.0677 3.5,-9 3.5,-9c0,0 1.27231,-2.5 9.25,-2.5c36.66557,0 141.03952,0 161,0c6.45319,0 8.25,1.5 8.25,1.5c0,0 4,1.29837 4,6c0,22.10412 0,86.27577 0,99.5c0,4.65108 -3,8.5 -3,8.5c0,0 -1.57776,0.5 -9.25,0.5c-35.32536,0 -136.2527,0 -158,0c-8.05119,0 -10.75,-3 -10.75,-3z" fill="#00aeff" stroke="#000000" stroke-width="2" stroke-linecap="butt"/><text transform="translate(173.25002,162.69375) scale(0.5,0.5)" font-size="40" xml:space="preserve" fill="#000000" fill-rule="nonzero" stroke="none" stroke-width="1" stroke-linecap="butt" stroke-linejoin="miter" stroke-miterlimit="10" stroke-dasharray="" stroke-dashoffset="0" font-family="Sans Serif" font-weight="normal" text-anchor="start" style="mix-blend-mode: normal"><tspan x="0" dy="0">big update </tspan><tspan x="0" dy="46.15px">caming soon!!</tspan><tspan x="0" dy="46.15px"> </tspan></text><path d="M333.25,212l-186.5,0" fill="none" stroke="#000000" stroke-width="2" stroke-linecap="round"/><text transform="translate(224.25,231) scale(0.5,0.5)" font-size="40" xml:space="preserve" fill="#000000" fill-rule="nonzero" stroke="none" stroke-width="1" stroke-linecap="butt" stroke-linejoin="miter" stroke-miterlimit="10" stroke-dasharray="" stroke-dashoffset="0" font-family="Sans Serif" font-weight="normal" text-anchor="start" style="mix-blend-mode: normal"><tspan x="0" dy="0">OK</tspan></text></g></g></svg>