<svg version="1.1" xmlns="http://www.w3.org/2000/svg" xmlns:xlink="http://www.w3.org/1999/xlink" width="215.0192" height="218.97028" viewBox="0,0,215.0192,218.97028"><defs><linearGradient x1="137.44189" y1="180.00661" x2="342.61524" y2="180.00661" gradientUnits="userSpaceOnUse" id="color-1"><stop offset="0" stop-color="#fc00f4"/><stop offset="1" stop-color="#fc0000"/></linearGradient></defs><g transform="translate(-132.4904,-70.51486)"><g data-paper-data="{&quot;isPaintingLayer&quot;:true}" fill-rule="nonzero" stroke="none" stroke-linecap="butt" stroke-linejoin="miter" stroke-miterlimit="10" stroke-dasharray="" stroke-dashoffset="0" style="mix-blend-mode: normal"><path d="M323.59157,137.15941c2.07161,-1.39943 3.47105,0.67218 3.47105,0.67218l0.81064,1.48086c0.52579,0.12116 1.06221,0.24046 1.60446,0.36194c-0.00913,-1.81456 -0.01507,-3.6291 0.01328,-5.44336c0.02193,-1.40362 0.57221,-2.87767 0.12829,-4.20943c-0.97085,-2.91256 -3.79263,-4.82969 -5.62829,-7.29057c-1.86723,-2.5032 -4.24215,-4.60825 -6.638,-6.61137c-2.77004,-2.31597 -4.42249,-5.72633 -7.0839,-8.07617c-1.22118,-1.07822 -2.68581,-1.85601 -3.9161,-2.92383c-2.05416,-1.7829 -3.40759,-4.39922 -5.73822,-5.80153c-2.70343,-1.62661 -5.88616,-2.27394 -8.83052,-3.40758c-4.7303,-1.82127 -8.98142,-3.48746 -13.37182,-6.03943c-2.42373,-1.41384 -4.57598,-3.4247 -7.24817,-4.28075c-3.02377,-0.96868 -6.28922,-0.87892 -9.43058,-1.34088c-6.59572,-0.96996 -13.19202,-1.93614 -19.78718,-2.90988c-6.23304,-0.92028 -12.13111,-3.82032 -18.30224,-4.63274c-3.25581,-0.42862 -6.571,-0.12733 -9.84359,-0.3997c-4.64318,-0.38643 -9.7305,-1.0428 -14.39059,-0.59721c-2.69116,0.25732 -3.68485,2.119 -5.87415,3.68161c-0.07397,0.0528 -8.42596,5.31081 -8.579,5.40719c-1.31332,0.81676 -2.76614,1.44329 -3.93997,2.45029c-1.29422,1.11028 -2.03441,2.79502 -3.38609,3.83458c-3.5912,2.76193 -8.52767,3.73313 -12.28769,6.25017c-2.69859,1.80649 -5.06229,4.06897 -7.59912,6.09635c-0.2971,0.23743 -3.29514,2.53449 -3.62642,3.11521c-0.49997,0.87641 -0.41298,2.01427 -0.93057,2.88039c-0.89107,1.49106 -2.27598,2.63733 -3.2331,4.08688c-1.83472,2.77866 -2.89494,6.01864 -4.71917,8.8042c-0.8615,1.3155 -2.23697,2.28061 -2.94711,3.68361c-1.41396,2.7935 -1.71485,6.02603 -2.39966,9.08118c-1.7522,7.81703 -2.39701,15.17604 -2.39701,23.14943c0,5.06675 -0.04175,9.38232 1.02512,14.33861c0.25468,1.18315 0.15941,2.48562 0.71866,3.55891c0.2258,0.43334 4.27859,4.80232 4.84848,5.73411c1.75438,2.86846 2.77824,6.14165 4.51884,9.01849c4.27966,7.07336 9.90426,13.40317 14.36871,20.38054c4.24561,6.63535 7.45123,14.14574 12.06197,20.52673c2.85235,3.94749 6.38704,7.59006 9.52037,11.32021c7.8448,9.33904 14.98815,19.52124 23.26347,28.41445c2.16669,2.32847 3.67641,5.33586 6.23961,7.21902c1.19778,0.88 2.73976,1.15339 4.10345,1.7445c2.48263,1.07613 4.75876,2.77593 7.41084,3.31254c3.11984,0.63125 6.35939,0.29365 9.53805,0.46095c9.38886,0.49415 18.61218,-0.11367 28.00341,-0.28521c0.91155,-0.69196 2.15284,-1.09037 2.73465,-2.07588c0.99262,-1.68136 0.7219,-6.84786 2.26539,-8.31703c2.49807,-2.37778 7.77506,-2.98535 10.97112,-3.59161c4.74807,-0.90066 10.05133,-0.79838 14.68711,-2.00115c4.28818,-1.11258 10.27771,-3.98391 13.70327,-6.74494c5.42369,-4.37154 5.68499,-11.556 10.06342,-16.52624c1.08644,-1.23329 6.25809,-4.08307 7.86143,-5.41404c3.68949,-3.06274 7.00805,-6.20417 10.9806,-8.98436c0.393,-0.22111 1.2169,-0.214 1.179,-0.66334c-0.10375,-1.23038 -1.07937,-2.22458 -1.51981,-3.3781c-0.5945,-1.55703 -1.05409,-3.16228 -1.58114,-4.74342c-0.98391,-2.95174 -1.13091,-6.30059 -2.86584,-8.88339c-0.80569,-1.19943 -2.24148,-1.82417 -3.34673,-2.75486c-3.52882,-2.9715 -6.78258,-6.76777 -11.25139,-8.35691c-3.03939,-1.08083 -6.30303,-1.37708 -9.4523,-2.07582c-8.9336,-1.98213 -17.79874,-3.90643 -26.82469,-5.41075c-2.64422,-0.4407 -5.26896,-1.01706 -7.93126,-1.33051c-1.74659,-0.20564 -3.81557,0.54621 -5.25557,-0.46338c-1.37661,-0.96514 -1.3373,-3.0851 -2.00594,-4.62765c-0.01215,-1.65684 -0.17003,-9.91041 0.34109,-10.71478c2.56451,-4.03588 11.70071,-4.82505 15.85913,-5.63106c9.03498,-1.75122 17.76542,-4.66827 26.76321,-6.50322c4.91301,-1.00193 10.00794,-1.50525 14.96748,-2.24884c5.9593,-0.89348 10.05009,-2.04652 15.41877,-4.53862c1.0386,-0.48211 2.36363,-0.51326 3.16793,-1.32825c1.36906,-1.38725 -0.33157,-4.72878 -0.65299,-5.70883c-2.16181,-1.5025 -4.12323,-3.35532 -6.5016,-4.48416c-0.29066,-0.13796 -1.17762,-0.43542 -2.30972,-0.79394c-0.17811,0.03314 -0.3728,0.05126 -0.58559,0.05126c-0.96194,0 -1.55374,-0.37013 -1.91784,-0.82555c-2.41005,-0.73275 -4.85275,-1.44845 -5.10574,-1.5241l-2.04804,-2.75092c0,0 -1.39943,-2.07161 0.67218,-3.47105zM334.49657,140.97044c0.8995,0.2915 1.77358,0.62435 2.59912,1.01789c1.84601,0.88001 7.0705,5.05656 8.33612,6.029c0.68578,2.03925 1.9644,3.96828 2.05734,6.11775c0.26178,6.05396 -1.99604,6.01377 -6.38012,8.33201c-4.23457,2.23918 -7.13256,3.4181 -11.91112,4.26018c-6.52706,1.1502 -13.20964,1.62898 -19.70263,2.95236c-7.38,1.50417 -14.50876,4.12911 -21.91235,5.56417c-4.7588,0.92241 -9.59254,1.63734 -14.23027,3.08754c-1.09928,0.34374 -2.65416,0.21943 -3.23503,1.214c-0.62277,1.0663 0.31562,2.45218 0.37337,3.68567c0.05612,1.19858 -0.02152,2.3997 -0.03228,3.59954c-0.00198,0.45745 -0.44011,1.22824 -0.00594,1.37235c0.88052,0.29227 1.81678,-0.47787 2.74443,-0.46338c1.15136,0.01799 2.27286,0.37135 3.40889,0.55951c4.95079,0.82001 9.92703,1.56427 14.86134,2.47779c5.7472,1.06401 11.45006,2.53956 17.15636,3.80564c0.38969,0.08646 9.88073,2.18557 10.07288,2.2563c5.08979,1.87338 8.81714,5.7805 12.80526,9.26447c1.4226,1.24276 3.18649,2.19204 4.23979,3.7601c0.2448,0.36443 3.20807,9.33832 3.45872,10.09027c0.50002,1.50006 3.35972,9.76792 3.22361,10.85215c-0.18182,1.44823 -1.88598,2.22818 -2.82898,3.34226c-3.98888,2.81094 -7.29236,5.93716 -11.01142,9.01004c-2.25317,1.86169 -5.36285,2.6719 -7.29487,4.86506c-0.96415,1.09447 -1.25974,2.63126 -1.90869,3.93752c-2.48819,5.00842 -4.43834,9.60472 -8.8716,13.25714c-5.57704,4.59475 -13.81934,7.43451 -20.80174,8.23123c-4.80027,0.54773 -9.66899,1.18286 -14.37407,2.32526c-1.17745,0.28589 -2.55147,0.30721 -3.4627,1.10582c-0.54836,0.48059 -0.10643,1.46073 -0.2752,2.17008c-0.44882,1.88651 -0.45801,4.01446 -1.57354,5.60064c-1.25921,1.79048 -3.46166,2.68004 -5.19249,4.02006c-10.04105,0.65855 -19.93507,1.11111 -29.98297,0.58227c-0.60462,-0.03182 -10.092,-0.5186 -10.43431,-0.59023c-2.9427,-0.61574 -5.52508,-2.37291 -8.26908,-3.60135c-1.68603,-0.7548 -3.55784,-1.19635 -5.04653,-2.29008c-0.39945,-0.29347 -6.3697,-7.22978 -6.93048,-7.83252c-8.33768,-8.96161 -15.53753,-19.20579 -23.44077,-28.61441c-3.22239,-3.83618 -6.84601,-7.58871 -9.77539,-11.65093c-4.65353,-6.45313 -7.90063,-14.01332 -12.19007,-20.71716c-4.4877,-7.0137 -10.13209,-13.37528 -14.43499,-20.48704c-1.71048,-2.82706 -2.71512,-6.04289 -4.42544,-8.87006c-1.39956,-2.3135 -3.91527,-3.86115 -5.15152,-6.26589c-0.73299,-1.42581 -0.75564,-3.11615 -1.11204,-4.67922c-1.20821,-5.29885 -1.14418,-10.0147 -1.14418,-15.42326c0,-8.33345 0.68799,-16.07851 2.51808,-24.24305c0.10354,-0.46191 2.70128,-10.01213 2.80898,-10.22867c0.78421,-1.5767 2.26925,-2.7044 3.23197,-4.17889c1.82431,-2.79409 2.89313,-6.03714 4.73106,-8.82229c0.87925,-1.33239 2.19571,-2.35104 3.01385,-3.72181c0.56338,-0.94393 0.48845,-2.18641 1.06943,-3.11961c0.91173,-1.46449 3.39175,-3.29825 4.7562,-4.39089c3.74122,-2.99593 7.14293,-5.9617 11.426,-8.13576c2.83091,-1.43696 6.02032,-2.29974 8.51977,-4.25721c1.28183,-1.00388 1.96351,-2.6323 3.20424,-3.68656c1.36162,-1.15699 3.01464,-1.91899 4.52196,-2.87848c2.78091,-1.75124 5.66422,-3.34916 8.34485,-5.25035c3.50527,-2.48604 3.79506,-3.97979 8.00686,-4.54849c4.93874,-0.66686 10.63195,0.14331 15.57164,0.55549c3.36531,0.28081 6.77527,-0.02143 10.12187,0.43076c4.78727,0.64685 9.46162,2.99265 14.17967,4.03189c7.80609,1.71944 16.03291,2.35226 23.94372,3.51561c0.6134,0.09021 10.02191,1.45982 10.3566,1.569c2.96846,0.96833 5.41696,3.10725 8.11404,4.68054c7.0284,4.11572 15.56262,5.37815 22.43544,9.5917c2.50385,1.53505 4.04233,4.27501 6.26178,6.19847c1.28792,1.11616 2.81438,1.93911 4.0839,3.07617c2.59998,2.3287 4.19961,5.66775 6.9161,7.92383c2.67462,2.22132 5.26919,4.6123 7.362,7.38863c0.55058,0.7304 6.20907,8.22152 6.37171,8.70943c0.61053,1.83159 0.103,3.86007 0.12829,5.79057c0.02943,2.24629 0.01479,4.49287 0.00557,6.73942z" fill="#fd0000" stroke-width="0.5"/><path d="M323.6361,137.13665c-2.07161,1.39944 -0.67151,3.47241 -0.67151,3.47241l2.04879,2.75258c0.25299,0.07565 2.69636,0.79299 5.10641,1.52574c0.3641,0.45542 0.95617,0.82625 1.91811,0.82625c0.21279,0 0.40751,-0.01805 0.58562,-0.05119c1.1321,0.35852 2.01932,0.6567 2.30998,0.79466c2.37837,1.12884 4.34071,2.98455 6.50252,4.48705c0.32142,0.98005 2.02273,4.3242 0.65367,5.71145c-0.8043,0.81499 -2.12927,0.84642 -3.16787,1.32853c-5.36868,2.4921 -9.55721,3.66626 -15.51651,4.55974c-4.95954,0.74359 -10.05434,1.24751 -14.96735,2.24944c-8.99779,1.83495 -17.63048,4.73091 -26.66546,6.48213c-4.15842,0.80601 -13.29391,1.59948 -15.85842,5.63536c-0.51112,0.80437 -0.35498,9.0782 -0.34283,10.73504c0.66864,1.54255 0.6271,3.66853 2.00371,4.63367c1.44,1.00959 3.4167,0.21929 5.16329,0.42493c2.6623,0.31345 5.28639,0.89159 7.93061,1.33229c9.02595,1.50432 17.89031,3.43109 26.82391,5.41322c3.14927,0.69874 6.5091,1.02231 9.54849,2.10314c4.46881,1.58914 7.72177,5.38798 11.25059,8.35948c1.10525,0.93069 2.54078,1.55618 3.34647,2.75561c1.73493,2.5828 1.8806,5.93499 2.86451,8.88673c0.52705,1.58114 0.98591,3.18797 1.58041,4.745c0.44044,1.15352 1.41558,2.1487 1.51933,3.37908c0.0379,0.44934 -0.78624,0.44269 -1.17924,0.6638c-3.97255,2.78019 -7.29437,5.927 -10.98386,8.98974c-1.60334,1.33097 -6.77767,4.18427 -7.86411,5.41756c-4.37843,4.97024 -4.64617,12.16113 -10.06986,16.53267c-3.42556,2.76103 -9.42096,5.63656 -13.70914,6.74914c-4.63578,1.20277 -9.9452,1.10369 -14.69327,2.00435c-3.19606,0.60626 -8.47858,1.21585 -10.97665,3.59363c-1.54349,1.46917 -1.27486,6.63625 -2.26748,8.31761c-0.58181,0.98551 -1.82454,1.38426 -2.73609,2.07622c-9.39123,0.17154 -18.62774,0.78049 -28.0166,0.28634c-3.17866,-0.1673 -6.42275,0.16988 -9.54259,-0.46137c-2.65208,-0.53661 -4.93194,-2.23708 -7.41457,-3.31321c-1.36369,-0.59111 -2.90776,-0.865 -4.10554,-1.745c-2.5632,-1.88316 -4.0768,-4.89174 -6.24349,-7.22021c-8.27532,-8.89321 -15.43508,-19.08502 -23.27988,-28.42406c-3.13333,-3.73015 -6.67411,-7.37912 -9.52646,-11.32661c-4.61074,-6.38099 -7.82359,-13.90374 -12.0692,-20.53909c-4.46445,-6.97737 -10.09237,-13.32007 -14.37203,-20.39343c-1.7406,-2.87684 -2.7648,-6.15497 -4.51918,-9.02343c-0.56989,-0.93179 -4.62265,-5.30366 -4.84845,-5.737c-0.55925,-1.07329 -0.46388,-2.37749 -0.71856,-3.56064c-1.06687,-4.95629 -1.02416,-9.27859 -1.02416,-14.34534c0,-7.97339 0.6481,-15.34248 2.4003,-23.15951c0.68481,-3.05515 0.98756,-6.2914 2.40152,-9.0849c0.71014,-1.403 2.08666,-2.36992 2.94816,-3.68542c1.82423,-2.78556 2.88694,-6.02924 4.72166,-8.8079c0.95712,-1.44955 2.34346,-2.59766 3.23453,-4.08872c0.51759,-0.86612 0.4314,-2.00494 0.93137,-2.88135c0.33128,-0.58072 3.33072,-2.87935 3.62782,-3.11678c2.53683,-2.02738 4.90361,-4.2929 7.6022,-6.09939c3.76002,-2.51704 8.70129,-3.49207 12.29249,-6.254c1.35168,-1.03956 2.09375,-2.72556 3.38797,-3.83584c1.17383,-1.007 2.62845,-1.63462 3.94177,-2.45138c0.15304,-0.09638 8.50909,-5.3565 8.58306,-5.4093c2.1893,-1.56261 3.18582,-3.42549 5.87698,-3.68281c4.66009,-0.44559 9.7533,0.2089 14.39648,0.59533c3.27259,0.27237 6.59221,-0.02983 9.84802,0.39879c6.17113,0.81242 12.078,3.71185 18.31104,4.63213c6.59516,0.97374 13.20154,1.94115 19.79726,2.91111c3.14136,0.46196 6.41142,0.37348 9.43519,1.34216c2.67219,0.85605 4.82837,2.86839 7.2521,4.28223c4.3904,2.55197 8.64814,4.22158 13.37844,6.04285c2.94436,1.13364 6.13091,1.78357 8.83434,3.41018c2.33063,1.40231 3.68719,4.02118 5.74135,5.80408c1.23029,1.06782 2.69669,1.84726 3.91787,2.92548c2.66141,2.34984 4.31748,5.76413 7.08752,8.0801c2.39585,2.00312 4.77353,4.11184 6.64076,6.61504c1.83566,2.46088 4.6598,4.38183 5.63065,7.29439c0.44392,1.33176 -0.10551,2.8074 -0.12744,4.21102c-0.02835,1.81426 -0.02134,3.63102 -0.01221,5.44558c-0.54225,-0.12148 -1.16962,-0.19921 -1.69541,-0.32037l-0.81027,-1.48007c0,0 -1.39894,-2.0706 -3.47055,-0.67117z" data-paper-data="{&quot;noHover&quot;:false,&quot;origItem&quot;:[&quot;Path&quot;,{&quot;applyMatrix&quot;:true,&quot;segments&quot;:[[[252.16876,116.11022],[0,0],[2.07161,-1.39943]],[255.63981,116.7824],[[256.45045,118.26326],[0,0],[0.52579,0.12116]],[[258.05491,118.6252],[-0.54225,-0.12148],[-0.00913,-1.81456]],[[258.06819,113.18184],[-0.02835,1.81426],[0.02193,-1.40362]],[[258.19648,108.97241],[0.44392,1.33176],[-0.97085,-2.91256]],[[252.56819,101.68184],[1.83566,2.46088],[-1.86723,-2.5032]],[[245.93019,95.07047],[2.39585,2.00312],[-2.77004,-2.31597]],[[238.84629,86.9943],[2.66141,2.34984],[-1.22118,-1.07822]],[[234.93019,84.07047],[1.23029,1.06782],[-2.05416,-1.7829]],[[229.19197,78.26894],[2.33063,1.40231],[-2.70343,-1.62661]],[[220.36145,74.86136],[2.94436,1.13364],[-4.7303,-1.82127]],[[206.98963,68.82193],[4.3904,2.55197],[-2.42373,-1.41384]],[[199.74146,64.54118],[2.67219,0.85605],[-3.02377,-0.96868]],[[190.31088,63.2003],[3.14136,0.46196],[-6.59572,-0.96996]],[[170.5237,60.29042],[6.59516,0.97374],[-6.23304,-0.92028]],[[152.22146,55.65768],[6.17113,0.81242],[-3.25581,-0.42862]],[[142.37787,55.25798],[3.27259,0.27237],[-4.64318,-0.38643]],[[127.98728,54.66077],[4.66009,-0.44559],[-2.69116,0.25732]],[[122.11313,58.34238],[2.1893,-1.56261],[-0.07397,0.0528]],[[113.53413,63.74957],[0.15304,-0.09638],[-1.31332,0.81676]],[[109.59416,66.19986],[1.17383,-1.007],[-1.29422,1.11028]],[[106.20807,70.03444],[1.35168,-1.03956],[-3.5912,2.76193]],[[93.92038,76.28461],[3.76002,-2.51704],[-2.69859,1.80649]],[[86.32126,82.38096],[2.53683,-2.02738],[-0.2971,0.23743]],[[82.69484,85.49617],[0.33128,-0.58072],[-0.49997,0.87641]],[[81.76427,88.37656],[0.51759,-0.86612],[-0.89107,1.49106]],[[78.53117,92.46344],[0.95712,-1.44955],[-1.83472,2.77866]],[[73.812,101.26764],[1.82423,-2.78556],[-0.8615,1.3155]],[[70.86489,104.95125],[0.71014,-1.403],[-1.41396,2.7935]],[[68.46523,114.03243],[0.68481,-3.05515],[-1.7522,7.81703]],[[66.06822,137.18186],[0,-7.97339],[0,5.06675]],[[67.09334,151.52047],[-1.06687,-4.95629],[0.25468,1.18315]],[[67.812,155.07938],[-0.55925,-1.07329],[0.2258,0.43334]],[[72.66048,160.81349],[-0.56989,-0.93179],[1.75438,2.86846]],[[77.17932,169.83198],[-1.7406,-2.87684],[4.27966,7.07336]],[[91.54803,190.21252],[-4.46445,-6.97737],[4.24561,6.63535]],[[103.61,210.73925],[-4.61074,-6.38099],[2.85235,3.94749]],[[113.13037,222.05946],[-3.13333,-3.73015],[7.8448,9.33904]],[[136.39384,250.47391],[-8.27532,-8.89321],[2.16669,2.32847]],[[142.63345,257.69293],[-2.5632,-1.88316],[1.19778,0.88]],[[146.7369,259.43743],[-1.36369,-0.59111],[2.48263,1.07613]],[[154.14774,262.74997],[-2.65208,-0.53661],[3.11984,0.63125]],[[163.68579,263.21092],[-3.17866,-0.1673],[9.38886,0.49415]],[[191.6892,262.92571],[-9.39123,0.17154],[0.91155,-0.69196]],[[194.42385,260.84983],[-0.58181,0.98551],[0.99262,-1.68136]],[[196.68924,252.5328],[-1.54349,1.46917],[2.49807,-2.37778]],[[207.66036,248.94119],[-3.19606,0.60626],[4.74807,-0.90066]],[[222.34747,246.94004],[-4.63578,1.20277],[4.28818,-1.11258]],[[236.05074,240.1951],[-3.42556,2.76103],[5.42369,-4.37154]],[[246.11416,223.66886],[-4.37843,4.97024],[1.08644,-1.23329]],[[253.97559,218.25482],[-1.60334,1.33097],[3.68949,-3.06274]],[[264.95619,209.27046],[-3.97255,2.78019],[0.393,-0.22111]],[[266.13519,208.60712],[0.0379,0.44934],[-0.10375,-1.23038]],[[264.61538,205.22902],[0.44044,1.15352],[-0.5945,-1.55703]],[[263.03424,200.4856],[0.52705,1.58114],[-0.98391,-2.95174]],[[260.1684,191.60221],[1.73493,2.5828],[-0.80569,-1.19943]],[[256.82167,188.84735],[1.10525,0.93069],[-3.52882,-2.9715]],[[245.57028,180.49044],[4.46881,1.58914],[-3.03939,-1.08083]],[[236.11798,178.41462],[3.14927,0.69874],[-8.9336,-1.98213]],[[209.29329,173.00387],[9.02595,1.50432],[-2.64422,-0.4407]],[[201.36203,171.67336],[2.6623,0.31345],[-1.74659,-0.20564]],[[196.10646,171.20998],[1.44,1.00959],[-1.37661,-0.96514]],[[194.10052,166.58233],[0.66864,1.54255],[-0.01215,-1.65684]],[[194.44161,155.86755],[-0.51112,0.80437],[2.56451,-4.03588]],[[210.30074,150.23649],[-4.15842,0.80601],[9.03498,-1.75122]],[[237.06395,143.73327],[-8.99779,1.83495],[4.91301,-1.00193]],[[252.03143,141.48443],[-4.95954,0.74359],[5.9593,-0.89348]],[[267.4502,136.94581],[-5.36868,2.4921],[1.0386,-0.48211]],[[270.61813,135.61756],[-0.8043,0.81499],[1.36906,-1.38725]],[[269.96514,129.90873],[0.32142,0.98005],[-2.16181,-1.5025]],[[263.46354,125.42457],[2.37837,1.12884],[-0.29066,-0.13796]],[[261.15382,124.63063],[1.1321,0.35852],[-0.17811,0.03314]],[[260.56823,124.68189],[0.21279,0],[-0.96194,0]],[[258.65039,123.85634],[0.3641,0.45542],[-2.41005,-0.73275]],[[253.54465,122.33224],[0.25299,0.07565],[0,0]],[251.49661,119.58132],[[252.16879,116.11027],[-2.07161,1.39944],[0,0]]],&quot;closed&quot;:true,&quot;fillColor&quot;:[0.99216,0,0],&quot;strokeWidth&quot;:0.5}]}" fill="url(#color-1)" stroke-width="0.25"/></g></g></svg>