<svg version="1.1" xmlns="http://www.w3.org/2000/svg" xmlns:xlink="http://www.w3.org/1999/xlink" width="204.07366" height="190.71028" viewBox="0,0,204.07366,190.71028"><defs><linearGradient x1="142.91573" y1="180.15019" x2="337.12375" y2="180.15019" gradientUnits="userSpaceOnUse" id="color-1"><stop offset="0" stop-color="#fc0000"/><stop offset="1" stop-color="#002bfc"/></linearGradient></defs><g transform="translate(-137.96317,-84.64486)"><g data-paper-data="{&quot;isPaintingLayer&quot;:true}" fill-rule="nonzero" stroke="none" stroke-linecap="butt" stroke-linejoin="miter" stroke-miterlimit="10" stroke-dasharray="" stroke-dashoffset="0" style="mix-blend-mode: normal"><path d="M178.94007,94.19357c0.45496,-0.34072 0.93282,-0.64098 1.45048,-0.87025c7.72378,-3.42084 16.69525,-3.33385 24.67791,-5.78943c3.35025,-1.03058 6.72694,-2.26251 10.22737,-2.4448c6.54408,-0.34079 16.78691,-1.93743 21.24962,4.10977c1.0424,1.41251 0.93237,3.38494 1.39856,5.07741c0.00149,0.42329 0.05044,10.2533 -0.00543,10.65221c-0.68007,4.85574 -2.8438,10.04179 -4.19284,14.76291c-2.28933,8.01177 -4.01778,16.17004 -6.2746,24.18773c-0.76466,2.71658 -2.17824,5.27821 -2.53666,8.07751c-0.1958,1.52925 0.21224,3.09439 0.02827,4.6251c-0.05701,0.47438 -1.10842,0.93767 -0.73223,1.23223c0.42836,0.33542 1.04465,-0.33946 1.50777,-0.62496c1.21356,-0.74812 2.3207,-1.65686 3.49796,-2.4609c6.49734,-4.43752 13.54868,-8.10163 20.5806,-11.61851c1.40852,-0.69824 2.89287,-1.26082 4.22556,-2.09472c1.28028,-0.80111 2.13152,-2.33637 3.5735,-2.78535c1.86142,-0.57958 3.89745,-0.12123 5.84683,-0.14779c3.33302,-0.04541 6.66667,0 10,0c11.3333,0 22.66671,-0.01414 34,0c7.94415,0.00991 16.42329,-2.43806 24.40014,-0.96777c6.1133,1.1268 6.8913,6.47106 8.88491,11.51491c1.59437,15.14566 1.21415,30.32626 1.21471,45.5441c0.00027,7.46958 0.00024,14.93917 0.00024,22.40875c0,4.44865 0.46835,9.40925 -0.95008,13.72191c-1.84778,5.61808 -5.85128,11.83344 -9.37051,16.5029c-0.80613,1.77446 -0.93224,4.06246 -2.41838,5.32339c-1.48843,1.26287 -3.82596,0.84042 -5.65377,1.52551c-4.24873,1.5925 -7.94554,4.67359 -12.20377,6.25732c-0.48218,0.17933 -9.13858,2.47909 -9.80914,2.6875c-7.99014,2.48331 -15.72755,6.04643 -23.90688,7.92097c-6.71497,1.53893 -13.35192,1.5605 -20.18746,1.5605c-8.36985,0 -16.74641,0.1494 -25.10836,-0.22962c-4.97516,-0.22614 -9.95889,-0.5473 -14.93733,-0.67942c-1.03927,-0.02758 -10.01863,-0.0225 -10.66739,-0.18571c-1.26742,-0.31884 -2.09907,-1.60056 -3.29869,-2.11915c-1.13091,-0.48889 -2.4034,-0.54595 -3.59456,-0.86076c-1.07237,-0.28341 -2.09273,-1.06574 -3.19398,-0.93334c-1.39129,0.16726 -2.53346,1.19877 -3.81061,1.77545c-4.65003,2.09964 -9.82521,5.49019 -14.95149,6.19395c-5.73445,0.78724 -10.76716,0.08116 -16.01451,-2.07679c-2.64481,-1.08767 -5.66965,-1.56361 -7.89287,-3.36231c-3.79203,-3.06795 -6.79898,-7.97438 -9.18151,-12.12317c-3.22359,-5.68976 -4.02726,-11.68197 -5.18424,-18.03137c-1.44518,-7.93103 -1.66201,-15.78007 -1.66398,-23.81752c-0.00181,-7.34443 0.02072,-13.52093 2.55505,-20.5037c0.98595,-2.71656 2.33147,-5.30192 3.7822,-7.80136c0.8378,-1.44343 1.17043,-3.22746 2.32108,-4.43634c1.30766,-1.37383 3.19461,-2.04565 4.80398,-3.0493c5.87819,-3.6658 11.45583,-7.39615 18.00684,-9.68966c6.22743,-2.16117 12.1613,-3.58402 17.36639,-7.64401c1.23032,-0.95965 2.4043,-2.0087 3.74095,-2.81368c0.45118,-0.27172 2.05378,-0.26195 1.53729,-0.36507c-1.0292,-0.20548 -2.11679,0.23733 -3.14824,0.04344c-3.99582,-0.75112 -7.63145,-3.0189 -11.38595,-4.46598c-0.45139,-0.17398 -9.33327,-3.37581 -9.58533,-3.50063c-4.57891,-2.26759 -8.07823,-6.12855 -12.43257,-8.69399c-3.58924,-2.11467 -4.81259,-1.26633 -7.09026,-4.66819c-3.63435,-5.42815 -2.48929,-11.73725 -2.42679,-17.93454c1.7169,-4.37743 4.17525,-7.67963 6.25474,-11.71438c0.5049,-0.97964 0.49614,-2.18842 1.07352,-3.12717c2.18685,-3.55553 6.69707,-6.70986 9.80515,-9.3843c1.33644,-1.14998 2.5164,-2.51719 4.02091,-3.43644c1.41379,-0.86382 3.12291,-1.12477 4.61682,-1.84117c1.49052,-0.71478 2.76067,-3.00267 4.31591,-2.44251c1.80766,0.65107 1.89037,3.34553 2.83555,5.0183zM174.32522,97.92671c-0.36248,-0.655 -0.36248,-1.34498 -0.36248,-1.34498l0.01802,-1.45083c-1.29816,0.71809 -2.93414,0.81454 -4.21745,1.5859c-0.61766,0.37126 -1.16011,0.84517 -1.68273,1.34628c0.79409,0.00174 1.58815,0.00715 2.38216,0.01865c1.07964,0.01563 2.22404,0.49297 3.23706,0.11926c0.21508,-0.07934 0.42318,-0.17145 0.62542,-0.27429zM162.17701,103.08237c-1.83664,1.50584 -3.61202,3.13444 -4.58765,4.81369c-0.50546,0.87 -0.46199,1.98028 -0.92648,2.87283c-1.83982,3.53536 -4.18592,6.48432 -5.74526,10.28562c0.04214,3.29515 -0.76428,7.77592 -0.02177,10.95285c1.02576,4.38886 3.77098,4.39018 7.15857,6.3914c4.2342,2.50136 7.67028,6.33293 12.11771,8.52416c3.68397,1.81508 7.88758,2.76548 11.67967,4.39136c2.84024,1.21777 5.8266,2.07662 8.65808,3.31461c2.16941,0.94852 5.42758,1.02029 6.3386,3.20572c1.33783,3.20932 -5.47572,7.45157 -6.97909,8.61904c-5.70989,4.4341 -12.01131,6.06645 -18.79774,8.42161c-4.78671,1.64492 -8.46286,3.99153 -12.77247,6.62518c-2.64839,1.61846 -5.86472,2.51541 -7.99525,4.77245c-0.90137,0.95489 -1.03658,2.41838 -1.67892,3.56366c-1.26867,2.26202 -2.52351,4.55665 -3.40596,6.99541c-2.32513,6.42576 -2.25751,12.02519 -2.25585,18.79879c0.0019,7.73617 0.18792,15.28727 1.58277,22.92124c1.05043,5.74897 1.64511,11.31705 4.60667,16.44818c2.01625,3.54779 4.58823,7.88036 7.77988,10.55926c1.89481,1.5904 4.59775,1.82843 6.87636,2.79154c4.33769,1.83341 8.44063,2.37718 13.21626,1.76936c6.80713,-0.86638 12.47164,-7.3019 19.23791,-8.03061c0.3688,-0.03972 8.68735,1.98222 9.21145,2.2059c1.02507,0.4375 1.66495,1.62948 2.74315,1.91173c3.00929,0.78778 6.22243,-0.11542 9.33203,-0.0329c5.00992,0.13295 10.02511,0.45524 15.03173,0.68281c8.28582,0.37771 16.58756,0.22446 24.88132,0.22446c6.4588,0 12.72484,0.02015 19.07052,-1.43415c9.69662,-2.22226 18.85259,-6.55769 28.44787,-9.16217c6.15797,-1.67148 10.94512,-5.49242 16.89606,-7.53469c1.31126,-0.45 3.05418,0.26527 4.11062,-0.63242c1.05869,-0.8996 0.86368,-2.64092 1.29553,-3.96138c3.34049,-4.47493 7.17424,-10.2761 8.9855,-15.63316c1.22681,-3.62846 0.69391,-8.42316 0.69391,-12.14203c0,-5.80287 0.00007,-11.60574 -0.00005,-17.40861c-0.00035,-16.46369 0.49188,-32.95726 -1.0711,-49.35377c-0.99792,-2.45969 -1.31646,-5.35349 -3.06685,-7.34899c-1.20266,-1.37107 -3.63385,-0.39557 -5.45762,-0.3876c-3.25054,0.0142 -6.51781,-0.32286 -9.75172,0.00588c-1.65925,0.16867 -3.24643,0.81856 -4.90631,0.98092c-4.63826,0.45369 -9.5785,0.01217 -14.24634,0.01217c-8.33333,0 -16.66667,0 -25,0c-3.33333,0 -6.6671,0.05382 -10,0c-1.38508,-0.02236 -2.83275,-0.56666 -4.15317,-0.14779c-1.08195,0.34322 -1.58211,1.65817 -2.53796,2.27038c-1.48313,0.94992 -3.1458,1.58494 -4.71871,2.37742c-6.87479,3.43648 -13.60773,7.10772 -20.04317,11.30662c-3.17023,2.06846 -6.89115,5.76317 -11.31477,2.46114c-1.2885,-0.96181 -0.6209,-3.16374 -0.73223,-4.76777c-0.37469,-5.39854 1.2701,-8.99371 2.69542,-14.05737c1.80291,-6.40511 3.16613,-12.93666 4.89612,-19.36211c1.65566,-6.14937 4.55075,-12.6307 5.43262,-18.92728c0.43218,-3.08581 -0.01787,-6.23188 -0.00543,-9.34779c-0.20048,-0.9742 -0.0474,-2.09658 -0.60144,-2.92259c-1.78297,-2.65819 -2.58085,-1.94041 -4.91729,-1.88287c-3.97886,0.09799 -7.97466,-0.16653 -11.95084,0.00269c-5.04874,0.21488 -9.16503,2.27408 -14.10277,3.29694c-6.0714,1.25771 -13.15795,1.96869 -18.8742,4.45877c-2.72759,1.18818 -4.50476,4.1292 -7.30925,5.12233c-1.49705,0.53014 -3.17492,0.09986 -4.76294,0.11926c-2.7617,0.03374 -5.52379,0.00535 -8.28573,0.00064z" fill="#fd0000" stroke-width="0.5"/><path d="M162.14148,103.04716c2.76194,0.00471 5.52606,0.03116 8.28776,-0.00258c1.58802,-0.0194 3.26724,0.4097 4.76429,-0.12044c2.80449,-0.99313 4.58518,-3.93685 7.31277,-5.12503c5.71625,-2.49008 12.8111,-3.20575 18.8825,-4.46346c4.93774,-1.02286 9.06123,-3.08462 14.10997,-3.2995c3.97618,-0.16922 7.9782,0.09402 11.95706,-0.00397c2.33644,-0.05754 3.13691,-0.77561 4.91988,1.88258c0.55404,0.82601 0.40939,2.04803 0.60987,3.02223c-0.01244,3.11591 0.43811,6.26194 0.00593,9.34775c-0.88187,6.29658 -3.77089,12.77697 -5.42655,18.92634c-1.72999,6.42545 -3.08295,12.95356 -4.88586,19.35867c-1.42532,5.06366 -3.05866,8.65151 -2.68397,14.05005c0.11133,1.60403 -0.62451,3.73301 0.66399,4.69482c4.42362,3.30203 8.16275,-0.4046 11.33298,-2.47306c6.43544,-4.1989 13.20333,-7.87025 20.07812,-11.30673c1.57291,-0.79248 3.23986,-1.42569 4.72299,-2.37561c0.95585,-0.61221 1.45741,-1.92646 2.53936,-2.26968c1.32042,-0.41887 2.77181,0.12756 4.15689,0.14992c3.3329,0.05382 6.67344,0.00513 10.00677,0.00513c8.33333,0 16.6754,0.01034 25.00873,0.01034c4.66784,0 9.6104,0.44558 14.24866,-0.00811c1.65988,-0.16236 3.24741,-0.81155 4.90666,-0.98022c3.23391,-0.32874 6.50213,0.01036 9.75267,-0.00384c1.82377,-0.00797 4.25545,-0.9823 5.45811,0.38877c1.75039,1.9955 2.07027,4.89303 3.06819,7.35272c1.56298,16.39651 1.07214,32.91479 1.07249,49.37848c0.00012,5.80287 -0.00221,11.6137 -0.00221,17.41657c0,3.71887 0.53073,8.51851 -0.69608,12.14697c-1.81126,5.35706 -5.64937,11.16534 -8.98986,15.64027c-0.43185,1.32046 -0.23794,3.06321 -1.29663,3.96281c-1.05644,0.89769 -2.80026,0.18352 -4.11152,0.63352c-5.95094,2.04227 -10.74396,5.86912 -16.90193,7.5406c-9.59528,2.60448 -18.76402,6.94781 -28.46064,9.17007c-6.34568,1.4543 -12.62152,1.43719 -19.08032,1.43719c-8.29376,0 -16.60961,0.15404 -24.89543,-0.22367c-5.00662,-0.22757 -10.03017,-0.5513 -15.04009,-0.68425c-3.1096,-0.08252 -6.32744,0.8192 -9.33673,0.03142c-1.0782,-0.28225 -1.71974,-1.47488 -2.74481,-1.91238c-0.5241,-0.22368 -8.84721,-2.24777 -9.21601,-2.20805c-6.76627,0.72871 -12.43591,7.16108 -19.24304,8.02746c-4.77563,0.60782 -8.88258,0.06092 -13.22027,-1.77249c-2.27861,-0.96311 -4.98372,-1.20313 -6.87853,-2.79353c-3.19165,-2.6789 -5.76736,-7.01552 -7.78361,-10.56331c-2.96156,-5.13113 -3.5603,-10.70491 -4.61073,-16.45388c-1.39485,-7.63397 -1.58518,-15.19399 -1.58708,-22.93016c-0.00166,-6.7736 -0.07156,-12.38153 2.25357,-18.80729c0.88245,-2.43876 2.13681,-4.73679 3.40548,-6.99881c0.64234,-1.14528 0.77739,-2.61064 1.67876,-3.56553c2.13053,-2.25704 5.34675,-3.15657 7.99514,-4.77503c4.30961,-2.63365 7.9859,-4.9849 12.77261,-6.62982c6.78643,-2.35516 13.08947,-3.99687 18.79936,-8.43097c1.50337,-1.16747 8.32074,-5.41951 6.98291,-8.62883c-0.91102,-2.18543 -4.08033,-2.21132 -6.24974,-3.15984c-2.83148,-1.23799 -5.81749,-2.09754 -8.65773,-3.31531c-3.79209,-1.62588 -8.08565,-2.61997 -11.76962,-4.43505c-4.44743,-2.19123 -7.88291,-6.02401 -12.11711,-8.52537c-3.38759,-2.00122 -6.13225,-2.00361 -7.15801,-6.39247c-0.74251,-3.17693 0.06623,-7.66157 0.02409,-10.95672c1.55934,-3.8013 3.90868,-6.75461 5.7485,-10.28997c0.46449,-0.89255 0.42185,-2.0038 0.92731,-2.8738c0.97563,-1.67925 2.75308,-3.31007 4.58972,-4.81591z" data-paper-data="{&quot;noHover&quot;:false,&quot;origItem&quot;:[&quot;Path&quot;,{&quot;applyMatrix&quot;:true,&quot;segments&quot;:[[[241.28246,84.68247],[0,0],[-1.83664,1.50584]],[[236.69481,89.49616],[0.97563,-1.67925],[-0.50546,0.87]],[[235.76833,92.36899],[0.46449,-0.89255],[-1.83982,3.53536]],[[230.02307,102.65461],[1.55934,-3.8013],[0.04214,3.29515]],[[230.0013,113.60746],[-0.74251,-3.17693],[1.02576,4.38886]],[[237.15987,119.99886],[-3.38759,-2.00122],[4.2342,2.50136]],[[249.27758,128.52302],[-4.44743,-2.19123],[3.68397,1.81508]],[[260.95725,132.91438],[-3.79209,-1.62588],[2.84024,1.21777]],[[269.61533,136.22899],[-2.83148,-1.23799],[2.16941,0.94852]],[[275.95393,139.43471],[-0.91102,-2.18543],[1.33783,3.20932]],[[268.97484,148.05375],[1.50337,-1.16747],[-5.70989,4.4341]],[[250.1771,156.47536],[6.78643,-2.35516],[-4.78671,1.64492]],[[237.40463,163.10054],[4.30961,-2.63365],[-2.64839,1.61846]],[[229.40938,167.87299],[2.13053,-2.25704],[-0.90137,0.95489]],[[227.73046,171.43665],[0.64234,-1.14528],[-1.26867,2.26202]],[[224.3245,178.43206],[0.88245,-2.43876],[-2.32513,6.42576]],[[222.06865,197.23085],[-0.00166,-6.7736],[0.0019,7.73617]],[[223.65142,220.15209],[-1.39485,-7.63397],[1.05043,5.74897]],[[228.25809,236.60027],[-2.96156,-5.13113],[2.01625,3.54779]],[[236.03797,247.15953],[-3.19165,-2.6789],[1.89481,1.5904]],[[242.91433,249.95107],[-2.27861,-0.96311],[4.33769,1.83341]],[[256.13059,251.72043],[-4.77563,0.60782],[6.80713,-0.86638]],[[275.3685,243.68982],[-6.76627,0.72871],[0.3688,-0.03972]],[[284.57995,245.89572],[-0.5241,-0.22368],[1.02507,0.4375]],[[287.3231,247.80745],[-1.0782,-0.28225],[3.00929,0.78778]],[[296.65513,247.77455],[-3.1096,-0.08252],[5.00992,0.13295]],[[311.68686,248.45736],[-5.00662,-0.22757],[8.28582,0.37771]],[[336.56818,248.68182],[-8.29376,0],[6.4588,0]],[[355.6387,247.24767],[-6.34568,1.4543],[9.69662,-2.22226]],[[384.08657,238.0855],[-9.59528,2.60448],[6.15797,-1.67148]],[[400.98263,230.55081],[-5.95094,2.04227],[1.31126,-0.45]],[[405.09325,229.91839],[-1.05644,0.89769],[1.05869,-0.8996]],[[406.38878,225.95701],[-0.43185,1.32046],[3.34049,-4.47493]],[[415.37428,210.32385],[-1.81126,5.35706],[1.22681,-3.62846]],[[416.06819,198.18182],[0,3.71887],[0,-5.80287]],[[416.06814,180.77321],[0.00012,5.80287],[-0.00035,-16.46369]],[[414.99704,131.41944],[1.56298,16.39651],[-0.99792,-2.45969]],[[411.93019,124.07045],[1.75039,1.9955],[-1.20266,-1.37107]],[[406.47257,123.68285],[1.82377,-0.00797],[-3.25054,0.0142]],[[396.72085,123.68873],[3.23391,-0.32874],[-1.65925,0.16867]],[[391.81454,124.66965],[1.65988,-0.16236],[-4.63826,0.45369]],[[377.5682,124.68182],[4.66784,0],[-8.33333,0]],[[352.5682,124.68182],[8.33333,0],[-3.33333,0]],[[342.5682,124.68182],[3.3329,0.05382],[-1.38508,-0.02236]],[[338.41503,124.53403],[1.32042,-0.41887],[-1.08195,0.34322]],[[335.87707,126.80441],[0.95585,-0.61221],[-1.48313,0.94992]],[[331.15836,129.18183],[1.57291,-0.79248],[-6.87479,3.43648]],[[311.11519,140.48845],[6.43544,-4.1989],[-3.17023,2.06846]],[[299.80042,142.94959],[4.42362,3.30203],[-1.2885,-0.96181]],[[299.06819,138.18182],[0.11133,1.60403],[-0.37469,-5.39854]],[[301.76361,124.12445],[-1.42532,5.06366],[1.80291,-6.40511]],[[306.65973,104.76234],[-1.72999,6.42545],[1.65566,-6.14937]],[[312.09235,85.83506],[-0.88187,6.29658],[0.43218,-3.08581]],[[312.08692,76.48727],[-0.01244,3.11591],[-0.20048,-0.9742]],[[311.48548,73.56468],[0.55404,0.82601],[-1.78297,-2.65819]],[[306.56819,71.68181],[2.33644,-0.05754],[-3.97886,0.09799]],[[294.61735,71.6845],[3.97618,-0.16922],[-5.04874,0.21488]],[[280.51458,74.98144],[4.93774,-1.02286],[-6.0714,1.25771]],[[261.64038,79.44021],[5.71625,-2.49008],[-2.72759,1.18818]],[[254.33113,84.56254],[2.80449,-0.99313],[-1.49705,0.53014]],[[249.56819,84.6818],[1.58802,-0.0194],[-2.7617,0.03374]],[[241.28246,84.68244],[2.76194,0.00471],[0,0]]],&quot;closed&quot;:true,&quot;fillColor&quot;:[0.99216,0,0],&quot;strokeWidth&quot;:0.5}]}" fill="url(#color-1)" stroke-width="0.25"/></g></g></svg>