<svg version="1.1" xmlns="http://www.w3.org/2000/svg" xmlns:xlink="http://www.w3.org/1999/xlink" width="221.71002" height="220.5276" viewBox="0,0,221.71002,220.5276"><defs><linearGradient x1="238.11847" y1="144.5993" x2="325.40391" y2="144.5993" gradientUnits="userSpaceOnUse" id="color-1"><stop offset="0" stop-color="#0007fc"/><stop offset="1" stop-color="#00fcc3"/></linearGradient><linearGradient x1="119.5155" y1="168.65129" x2="311.0268" y2="168.65129" gradientUnits="userSpaceOnUse" id="color-2"><stop offset="0" stop-color="#0007fc"/><stop offset="1" stop-color="#00fcc3"/></linearGradient></defs><g transform="translate(-114.64467,-58.40256)"><g data-paper-data="{&quot;isPaintingLayer&quot;:true}" fill-rule="nonzero" stroke="none" stroke-linecap="butt" stroke-linejoin="miter" stroke-miterlimit="10" stroke-dasharray="" stroke-dashoffset="0" style="mix-blend-mode: normal"><path d="M310.19648,222.9724c-0.52093,-1.61132 -0.84403,-3.23069 -1.10109,-4.84564c-5.58731,0.7685 -11.91284,0.4678 -17.26571,0.50056c-3.88266,0.02287 -10.23896,1.06651 -13.98596,-0.05277c-4.34131,-1.2968 -8.07186,-6.64867 -11.11437,-9.69603c-7.58782,-7.5999 -13.93479,-17.44719 -20.31873,-26.10206c-0.00459,-0.00622 -5.77871,-8.17271 -5.80201,-8.20656c-0.82497,-1.1986 -2.03452,-2.22872 -2.42303,-3.63096c-0.4882,-1.76205 0.10313,-3.66749 -0.10247,-5.48432c-0.70207,-6.2037 -2.74634,-12.47996 -3.78031,-18.66324c-1.35884,-7.06333 -1.62762,-13.65865 -0.22431,-20.73255c0.36073,-1.81836 0.36717,-3.75308 1.11868,-5.44772c0.12142,-0.27379 5.96787,-8.08412 6.3291,-8.53925c4.09714,-5.16222 8.64185,-11.12921 13.86835,-15.20122c3.52167,-2.74376 5.19199,-2.51027 8.66547,-5.0977c2.26514,-1.68733 3.80111,-4.30326 6.23229,-5.74108c3.63876,-2.15199 8.5333,-2.07174 12.47027,-3.22814c4.5944,-1.34951 8.95708,-3.99269 13.2136,-6.12021c2.47306,-1.09195 5.30651,-2.65435 8.15564,-3.85323c-0.04104,-0.19491 -0.06371,-0.41034 -0.06371,-0.64845c0,-1.18262 0.55943,-1.8058 1.14902,-2.13419c-2.90756,-0.57121 -5.83143,-1.0583 -8.74461,-1.60083c-2.51626,-0.46861 -5.1931,-0.08603 -7.62888,-0.87226c-1.14374,-0.36918 -1.83686,-1.69741 -3,-2c-1.3797,-0.35893 -2.85001,0.09078 -4.27554,0.10727c-0.93036,0.01076 -1.86092,0.01723 -2.79161,0.02069c0.98744,0.36501 1.95824,0.77691 2.90964,1.24325c0,0 2.23607,1.11803 1.11803,3.3541c-1.11803,2.23607 -3.3541,1.11803 -3.3541,1.11803c-4.16787,-2.13435 -7.58974,-2.18763 -12.18523,-2.75453c-7.89869,-0.97438 -16.4905,-1.27588 -24.23343,-3.03983c-3.09401,-0.70486 -7.47176,-3.04739 -10.88892,-2.00859c-5.17565,1.57338 -9.9419,5.12303 -14.79737,7.40141c-4.53277,2.12696 -9.34453,3.2808 -13.86658,5.52438c-4.40016,2.16543 -9.05372,2.84464 -13.48443,4.79831c-1.56454,0.68987 -2.8494,1.95068 -4.45056,2.55068c-0.22181,0.08312 -7.21992,1.48974 -8.48336,1.74318c-0.29863,0.05991 -9.88951,1.98148 -10.04565,1.99731c-4.68785,0.47541 -9.72078,0.0516 -14.44643,0.0516c-6.01445,0 -12.76273,0.62076 -18.6244,-1.07923c-1.73132,-0.50211 -3.3796,-1.26169 -5.02819,-1.99091c-0.7062,-0.31238 -2.56779,-2.0673 -3.57965,-0.66209c-0.58951,0.81868 -0.10442,2.03355 -0.38903,3.00141c-0.47472,1.61431 -1.24812,3.12531 -1.87218,4.68797c-1.11683,3.84301 -1.42077,6.23244 -2.03884,9.94331c-0.17318,1.03977 -0.86685,1.95435 -1,3c-1.00431,7.8869 0.03228,16.63657 0.03228,24.59954c0,1.66667 0.03506,3.3337 0,5c-0.03216,1.52831 -1.35733,4.88336 0.14167,4.58375c2.92023,-0.58368 5.60352,-2.09689 8.52615,-2.66845c6.70566,-1.31137 13.58738,-1.32262 20.38523,-1.38169c0.89367,-0.00777 9.70287,-0.08919 10.39955,0.15499c1.28923,0.45186 2.01194,1.84858 3.01791,2.77287c0.98436,1.65872 2.28478,3.16682 2.95308,4.97615c0.63304,1.71386 0.59599,3.60516 0.88299,5.40951c1.35556,8.52234 1.6652,16.63621 1.68496,25.25612c0.01345,5.86616 -0.03784,12.46332 -4.54767,16.87375c-1.32487,1.29567 -3.16775,1.92402 -4.75924,2.87335c-2.06997,1.23476 -6.06119,3.67099 -8.31728,4.49435c-1.07832,0.39353 -2.47934,-0.04888 -3.37904,0.66399c-1.03926,0.82345 -1.2556,2.33581 -1.88192,3.50451c-3.3757,6.299 -3.04324,13.47308 -3.08306,20.43146c-0.03891,5.00754 0.16014,11.544 1.85889,16.29709c2.68914,7.52418 9.37206,12.03322 13.66918,18.32936c1.86995,2.73985 1.38943,4.57904 4.31087,6.33264c6.06803,3.64236 13.82393,4.48834 20.40689,6.7175c7.01543,2.37561 13.77961,3.89238 21.23083,3.87873c4.4213,0 9.30656,0.58639 13.67923,0.02066c3.19975,-0.41397 6.23509,-1.66218 9.35528,-2.48328c2.97235,-0.7822 6.13982,-1.01414 8.9263,-2.31116c2.89318,-1.3467 5.24679,-3.63428 7.88056,-5.43633c6.34282,-4.33983 12.69773,-8.65391 19.09239,-12.91702c2.29338,-1.52892 4.42786,-3.33135 6.8866,-4.57706c7.04835,-3.571 14.58145,-5.76945 22.15731,-7.83554c2.59681,-0.7365 5.50471,-0.73871 7.80825,-2.14568c2.68212,-1.63819 4.60628,-4.27707 6.9318,-6.39117c1.56597,-1.42361 3.13194,-2.84722 4.69791,-4.27083zM306.22348,206.0492c-0.55052,-2.28798 -0.76933,-5.26744 -3.03815,-6.78466c-0.96675,-0.64649 -2.30199,-0.37707 -3.41525,-0.71353c-3.55938,-1.07575 -8.9851,-3.07764 -11.80375,-5.4498c-1.31404,-1.10589 -1.91431,-2.87637 -3.11617,-4.10325c-1.01955,-1.04077 -2.85156,-1.325 -3.48615,-2.63649c-0.75324,-1.5567 -0.23331,-3.45141 -0.29581,-5.17964c-0.18245,-5.04494 0.09259,-10.48197 3.58062,-14.60187c3.0258,-3.57393 8.05662,-5.03397 10.91146,-8.88751c1.74287,-2.35257 2.63919,-5.23149 4.11937,-7.75761c2.53955,-4.33405 5.26674,-8.17597 7.39424,-12.74839c3.97505,-8.51797 8.1662,-16.91313 12.32629,-25.34185c1.96546,-3.9822 4.76224,-8.76458 5.71313,-13.13553c0.60424,-2.77748 -0.04659,-5.68478 -0.04511,-8.52723c0.00008,-0.14502 0.19463,-5.71354 -0.25046,-7.03197c-1.64763,-4.88054 -5.48121,-6.96989 -9.86739,-7.84963c-1.07427,0.5125 -2.89277,0.33438 -4.08137,0.73754c-4.40141,1.49292 -8.51229,3.29415 -12.76458,5.17024c-4.50489,2.25324 -9.0695,4.94836 -13.92486,6.39076c-3.34572,0.99392 -8.23033,0.86265 -11.33553,2.73302c-2.27208,1.36855 -3.66985,3.86642 -5.79696,5.45092c-2.65883,1.98059 -5.96406,2.9945 -8.57942,5.03214c-4.9092,3.8248 -9.17749,9.51775 -13.02493,14.36536c-1.94197,2.4468 -4.40842,4.60225 -5.67477,7.45785c-0.5999,1.35276 -0.50752,2.91587 -0.78039,4.3703c-1.21886,6.49654 -1.03166,12.40553 0.23581,18.89502c1.05022,6.28216 3.15984,12.69736 3.82994,19.00565c0.15904,1.49719 -0.45635,3.05224 -0.10247,4.51568c0.22343,0.92397 1.18039,1.49101 1.74067,2.25895c2.93244,4.01929 5.72598,8.10231 8.76118,12.04765c6.60335,8.58344 12.69652,17.47684 20.34778,25.14722c0.17586,0.1763 4.17259,4.56078 5.49223,4.91057c1.0536,0.27927 2.17837,-0.08806 3.26818,-0.10726c3.07938,-0.05424 6.15961,-0.03629 9.23941,-0.05443c5.11709,-0.02892 11.23741,0.31363 16.57103,-0.43864c-0.39765,-2.43493 -0.95663,-4.82964 -2.14779,-7.13958zM317.11045,70.74555c1.80824,0.48621 3.6929,0.8767 5.3202,1.80299c7.09008,4.03582 7.63391,10.43107 7.63753,17.63329c0.00159,3.15763 0.61183,6.38424 -0.04511,9.47277c-1.02207,4.80513 -3.97927,10.0224 -6.13887,14.40209c-4.14097,8.39794 -8.31961,16.75889 -12.27942,25.24419c-2.20327,4.70826 -4.99559,8.69792 -7.61119,13.16175c-1.57089,2.68092 -2.54993,5.7252 -4.4175,8.20859c-2.99121,3.97754 -7.9547,5.51589 -11.08854,9.11249c-1.94806,2.23571 -2.4354,5.61858 -2.41938,8.39813c0.00576,0.99998 0.05076,2.00129 0,3c-0.04798,0.94406 -0.73857,1.98518 -0.29581,2.82036c0.44651,0.84224 1.83115,0.69819 2.51385,1.36351c1.15727,1.12781 1.6683,2.83199 2.88383,3.89675c2.40107,2.10324 7.16372,3.54912 10.19625,4.5502c1.50727,0.49757 3.31135,0.3389 4.58475,1.28647c3.92511,2.92079 3.91976,5.18348 4.96185,9.21534c0.69614,1.43099 1.70138,2.74943 2.08841,4.29298c0.28692,1.14427 -0.0306,2.35874 -0.0128,3.54115c3.79681,-1.23348 8.15403,-3.49396 11.42136,-5.18224c2.03119,-1.04954 8.51767,-6.02856 10.37024,-4.97114c2.10686,1.20256 1.69249,4.85215 1.07436,7.19799c-0.12979,0.49257 -7.13539,6.77554 -7.7067,7.29492c-6.16617,5.60561 -12.33233,11.21121 -18.4985,16.81682c-0.55096,0.50088 -7.49385,6.83937 -7.86701,7.06229c-2.65167,1.58406 -5.92488,1.74921 -8.89647,2.59197c-7.22731,1.97113 -14.40386,4.03938 -21.13796,7.4268c-2.31871,1.16637 -4.31277,2.88919 -6.47239,4.32894c-6.37796,4.25197 -12.71621,8.55481 -19.04247,12.88331c-0.44338,0.30336 -8.36214,5.73509 -8.62559,5.85735c-0.25036,0.11619 -9.42617,2.51843 -9.73221,2.59897c-0.39125,0.10296 -9.77646,2.57945 -9.98621,2.60658c-4.58311,0.59295 -9.68638,0.02066 -14.32077,0.02066c-5.95189,-0.01003 -12.28807,-0.59667 -18.04658,-2.23986c-2.61008,-0.74478 -5.07574,-1.96415 -7.70905,-2.62211c-4.71097,-1.17709 -8.95516,-2.74442 -13.47509,-4.50977c-1.71368,-0.66931 -3.58489,-1.0358 -5.13156,-2.03203c-2.67552,-1.72333 -3.91458,-5.02553 -5.68913,-7.66736c-1.58832,-2.36459 -4.05672,-4.0149 -5.85944,-6.22041c-0.07876,-0.09636 -5.94055,-8.35515 -5.9967,-8.44992c-3.89447,-6.57232 -4.59835,-15.33765 -4.56901,-22.84261c0.04415,-7.65134 -0.34725,-16.03464 3.7252,-22.85421c1.03048,-1.72561 1.70321,-3.80293 3.26304,-5.07042c1.24437,-1.01116 3.12429,-0.76079 4.62096,-1.33601c3.36619,-1.29375 8.71052,-3.90989 11.37648,-6.31179c3.37097,-3.03709 2.99708,-9.13523 2.98245,-13.22564c-0.03719,-10.40062 1.10191,-23.44394 -4.46208,-32.57933c-1.786,-2.23164 -6.81977,-1.02781 -9.43299,-1.0051c-6.4875,0.05637 -13.06877,0.03727 -19.46904,1.28892c-1.72235,0.33683 -9.49579,2.87215 -10.76912,2.5939c-6.01849,-1.31517 -3.85833,-10.39547 -3.85833,-14.41625c0,-8.25736 -0.97408,-17.21093 0.03228,-25.40046c0.12856,-1.04622 0.82659,-1.96027 1,-3c0.64245,-3.85206 1.09953,-6.83989 2.24726,-10.77192c0.61391,-1.53227 1.28285,-3.04362 1.84173,-4.5968c0.59271,-1.6472 0.29656,-3.84234 1.61097,-4.99859c1.56819,-1.3795 3.93856,-1.63304 6.02538,-1.71892c2.65752,-0.10938 4.81407,2.31889 7.36678,3.06592c2.4274,0.71036 5.00663,0.76844 7.53095,0.9256c11.10875,0.69161 22.49742,0.22162 33.35257,-1.95592c2.56489,-0.51452 5.25565,-0.58543 7.69975,-1.51806c1.51679,-0.57879 2.72078,-1.80139 4.20827,-2.45179c4.39148,-1.92013 8.95085,-2.54635 13.27644,-4.70123c4.54915,-2.24677 9.41248,-3.42294 13.95568,-5.5674c5.12148,-2.41741 10.25325,-6.23715 15.77756,-7.74355c4.4116,-1.20298 9.00578,1.0409 13.11108,1.99141c6.35743,1.47195 13.23792,1.58366 19.97554,2.14696c0.18834,-2.20525 2.48776,-2.20525 2.48776,-2.20525h1c4.66566,0 9.33473,-0.04666 14,0c1.90839,0.01909 3.86932,-0.34081 5.72446,0.10727c1.16826,0.28218 1.86414,1.60724 3,2c0.78941,0.27297 1.67321,-0.18366 2.50395,-0.09681c4.69277,0.4906 9.97387,1.49914 14.53548,2.68214c3.13052,0.81187 7.55448,1.53152 8.56368,5.05299c0.37264,0.09441 0.77546,0.20003 1.21469,0.31813zM314.9399,221.39126l0.0887,0.26609c2.0187,-1.83519 4.03741,-3.67037 6.05611,-5.50556c1.52214,-1.38377 3.02333,-2.79117 4.54236,-4.17845c-1.2899,0.54084 -2.57256,1.00475 -3.66981,1.47594c-0.34583,0.14851 -5.09824,2.19115 -7.78294,3.32581c0.18343,1.55717 0.25485,3.14166 0.76558,4.61616z" fill="#fd0000" stroke-width="0.5"/><path d="M306.24199,206.09565c1.19116,2.30994 1.74973,4.70481 2.14738,7.13974c-5.33362,0.75227 -11.46483,0.41258 -16.58192,0.4415c-3.0798,0.01814 -6.16665,0.00071 -9.24603,0.05495c-1.08981,0.0192 -2.21694,0.3865 -3.27054,0.10723c-1.31964,-0.34979 -5.32073,-4.73462 -5.49659,-4.91092c-7.65126,-7.67038 -13.76759,-16.57289 -20.37094,-25.15633c-3.0352,-3.94534 -5.8398,-8.03937 -8.77224,-12.05866c-0.56028,-0.76794 -1.51899,-1.33753 -1.74242,-2.2615c-0.35388,-1.46344 0.25936,-3.0222 0.10032,-4.51939c-0.6701,-6.30829 -2.78542,-12.74519 -3.83564,-19.02735c-1.26747,-6.48949 -1.45094,-12.41903 -0.23208,-18.91557c0.27287,-1.45443 0.18242,-3.02169 0.78232,-4.37445c1.26635,-2.8556 3.73825,-5.01935 5.68022,-7.46615c3.84744,-4.84761 8.1311,-10.55323 13.0403,-14.37803c2.61536,-2.03764 5.92964,-3.05528 8.58847,-5.03587c2.12711,-1.5845 3.5312,-4.08384 5.80328,-5.45239c3.1052,-1.87037 8.00004,-1.73972 11.34576,-2.73364c4.85536,-1.4424 9.43033,-4.13598 13.93522,-6.38922c4.25229,-1.87609 8.37023,-3.67493 12.77164,-5.16785c1.1886,-0.40316 3.00916,-0.22411 4.08343,-0.73661c4.38618,0.87974 8.22686,2.97324 9.87449,7.85378c0.44509,1.31843 0.25298,6.88878 0.2529,7.0338c-0.00148,2.84245 0.65255,5.75253 0.04831,8.53001c-0.95089,4.37095 -3.74429,9.15685 -5.70975,13.13905c-4.16009,8.42872 -8.34097,16.84265 -12.31602,25.36062c-2.1275,4.57242 -4.85476,8.44267 -7.39431,12.77672c-1.48018,2.52612 -2.38816,5.42519 -4.13103,7.77776c-2.85484,3.85354 -7.91542,5.32873 -10.94122,8.90266c-3.48803,4.1199 -3.77052,9.55734 -3.58807,14.60228c0.0625,1.72823 -0.45599,3.52295 0.29725,5.07965c0.63459,1.31149 2.46265,1.59584 3.4822,2.63661c1.20186,1.22688 1.79925,2.99764 3.11329,4.10353c2.81865,2.37216 8.23488,4.37622 11.79426,5.45197c1.11326,0.33646 2.44609,0.06791 3.41284,0.7144c2.26882,1.51722 2.52436,4.58969 3.07488,6.87767z" data-paper-data="{&quot;noHover&quot;:false,&quot;origItem&quot;:[&quot;Path&quot;,{&quot;applyMatrix&quot;:true,&quot;segments&quot;:[[[274.22348,193.0492],[0,0],[-0.55052,-2.28798]],[[271.18533,186.26454],[2.26882,1.51722],[-0.96675,-0.64649]],[[267.77008,185.55101],[1.11326,0.33646],[-3.55938,-1.07575]],[[255.96633,180.10121],[2.81865,2.37216],[-1.31404,-1.10589]],[[252.85016,175.99796],[1.20186,1.22688],[-1.01955,-1.04077]],[[249.36401,173.36147],[0.63459,1.31149],[-0.75324,-1.5567]],[[249.0682,168.18183],[0.0625,1.72823],[-0.18245,-5.04494]],[[252.64882,153.57996],[-3.48803,4.1199],[3.0258,-3.57393]],[[263.56028,144.69245],[-2.85484,3.85354],[1.74287,-2.35257]],[[267.67965,136.93484],[-1.48018,2.52612],[2.53955,-4.33405]],[[275.07389,124.18645],[-2.1275,4.57242],[3.97505,-8.51797]],[[287.40018,98.8446],[-4.16009,8.42872],[1.96546,-3.9822]],[[293.11331,85.70907],[-0.95089,4.37095],[0.60424,-2.77748]],[[293.0682,77.18184],[-0.00148,2.84245],[0.00008,-0.14502]],[[292.81774,70.14987],[0.44509,1.31843],[-1.64763,-4.88054]],[[282.95035,62.30024],[4.38618,0.87974],[-1.07427,0.5125]],[[278.86898,63.03778],[1.1886,-0.40316],[-4.40141,1.49292]],[[266.1044,68.20802],[4.25229,-1.87609],[-4.50489,2.25324]],[[252.17954,74.59878],[4.85536,-1.4424],[-3.34572,0.99392]],[[240.84401,77.3318],[3.1052,-1.87037],[-2.27208,1.36855]],[[235.04705,82.78272],[2.12711,-1.5845],[-2.65883,1.98059]],[[226.46763,87.81486],[2.61536,-2.03764],[-4.9092,3.8248]],[[213.4427,102.18022],[3.84744,-4.84761],[-1.94197,2.4468]],[[207.76793,109.63807],[1.26635,-2.8556],[-0.5999,1.35276]],[[206.98754,114.00837],[0.27287,-1.45443],[-1.21886,6.49654]],[[207.22335,132.90339],[-1.26747,-6.48949],[1.05022,6.28216]],[[211.05329,151.90904],[-0.6701,-6.30829],[0.15904,1.49719]],[[210.95082,156.42472],[-0.35388,-1.46344],[0.22343,0.92397]],[[212.69149,158.68367],[-0.56028,-0.76794],[2.93244,4.01929]],[[221.45267,170.73132],[-3.0352,-3.94534],[6.60335,8.58344]],[[241.80045,195.87854],[-7.65126,-7.67038],[0.17586,0.1763]],[[247.29268,200.78911],[-1.31964,-0.34979],[1.0536,0.27927]],[[250.56086,200.68185],[-1.08981,0.0192],[3.07938,-0.05424]],[[259.80027,200.62742],[-3.0798,0.01814],[5.11709,-0.02892]],[[276.3713,200.18878],[-5.33362,0.75227],[-0.39765,-2.43493]],[[274.22351,193.0492],[1.19116,2.30994],[0,0]]],&quot;closed&quot;:true,&quot;fillColor&quot;:[0.99216,0,0],&quot;strokeWidth&quot;:0.5}]}" fill="url(#color-1)" stroke-width="0.25"/><path d="M311.0268,225.35985c-1.56597,1.42361 -3.13342,2.84956 -4.69939,4.27317c-2.32552,2.1141 -4.2522,4.75641 -6.93432,6.3946c-2.30354,1.40697 -5.2135,1.4116 -7.81031,2.1481c-7.57586,2.06609 -15.11725,4.27183 -22.1656,7.84283c-2.45874,1.24571 -4.59691,3.05049 -6.89029,4.57941c-6.39466,4.26311 -12.76032,8.58181 -19.10314,12.92164c-2.63377,1.80205 -4.9917,4.09071 -7.88488,5.43741c-2.78648,1.29702 -5.95836,1.52965 -8.93071,2.31185c-3.12019,0.8211 -6.16008,2.0696 -9.35983,2.48357c-4.37267,0.56573 -9.26441,-0.02096 -13.68571,-0.02096c-7.45122,0.01365 -14.22534,-1.50527 -21.24077,-3.88088c-6.58296,-2.22916 -14.34797,-3.07915 -20.416,-6.72151c-2.92144,-1.7536 -2.44371,-3.59449 -4.31366,-6.33434c-4.29712,-6.29614 -10.98841,-10.81205 -13.67755,-18.33623c-1.69875,-4.75309 -1.90243,-11.29501 -1.86352,-16.30255c0.03982,-6.95838 -0.2975,-14.14064 3.0782,-20.43964c0.62632,-1.1687 0.842,-2.68251 1.88126,-3.50596c0.8997,-0.71287 2.39227,-0.31069 3.47059,-0.70422c2.25609,-0.82336 6.15573,-3.21943 8.2257,-4.45419c1.59149,-0.94933 3.43411,-1.5783 4.75898,-2.87397c4.50983,-4.41043 4.55753,-11.0219 4.54408,-16.88806c-0.01976,-8.61991 -0.32571,-16.75811 -1.68127,-25.28045c-0.287,-1.80435 -0.24819,-3.69939 -0.88123,-5.41325c-0.6683,-1.80933 -1.96751,-3.3196 -2.95187,-4.97832c-1.00597,-0.92429 -1.64283,-2.26973 -2.93206,-2.72159c-0.69668,-0.24418 -9.50415,-0.16585 -10.39782,-0.15808c-6.79785,0.05907 -13.67726,0.0651 -20.38292,1.37647c-2.92263,0.57156 -5.60502,2.08216 -8.52525,2.66584c-1.499,0.29961 -0.26854,-3.08747 -0.23638,-4.61578c0.03506,-1.6663 0.00083,-3.33546 0.00083,-5.00213c0,-7.96297 -1.03189,-16.7214 -0.02758,-24.6083c0.13315,-1.04565 0.82757,-1.96131 1.00075,-3.00108c0.61807,-3.71087 0.92437,-6.10336 2.0412,-9.94637c0.62406,-1.56266 1.39875,-3.07515 1.87347,-4.68946c0.28461,-0.96786 -0.1998,-2.18347 0.38971,-3.00215c1.01186,-1.40521 2.87402,0.34912 3.58022,0.6615c1.64859,0.72922 3.2975,1.48816 5.02882,1.99027c5.86167,1.69999 12.61454,1.07521 18.62899,1.07521c4.72565,0 9.76361,0.42038 14.45146,-0.05503c0.15614,-0.01583 9.7517,-1.93986 10.05033,-1.99977c1.26344,-0.25344 8.26591,-1.66182 8.48772,-1.74494c1.60116,-0.6 2.88866,-1.86165 4.4532,-2.55152c4.43071,-1.95367 9.09183,-2.63444 13.49199,-4.79987c4.52205,-2.24358 9.34122,-3.39781 13.87399,-5.52477c4.85547,-2.27838 9.62859,-5.82741 14.80424,-7.40079c3.41716,-1.0388 7.79999,1.30482 10.894,2.00968c7.74293,1.76395 16.3448,2.06937 24.24349,3.04375c4.59549,0.5669 8.02183,0.62281 12.1897,2.75716c0,0 2.18021,1.20098 3.29824,-1.03509c1.11804,-2.23607 -1.11707,-3.35345 -1.11707,-3.35345c-0.9514,-0.46634 -1.92111,-0.87755 -2.90855,-1.24256c0.93069,-0.00346 1.91459,-0.09451 2.84495,-0.10527c1.42553,-0.01649 2.89702,-0.46542 4.27672,-0.10649c1.16314,0.30259 1.85744,1.63165 3.00118,2.00083c2.43578,0.78623 5.11467,0.40523 7.63093,0.87384c2.91318,0.54253 5.83927,1.03153 8.74683,1.60274c-0.58959,0.32839 -1.14885,0.95172 -1.14885,2.13434c0,0.23811 -0.0452,0.52698 -0.00416,0.72189c-2.84913,1.19888 -5.68156,2.7622 -8.15462,3.85415c-4.25652,2.12752 -8.61712,4.77242 -13.21152,6.12193c-3.93697,1.1564 -8.82832,1.07846 -12.46708,3.23045c-2.43118,1.43782 -3.96623,4.05435 -6.23137,5.74168c-3.47348,2.58743 -5.14141,2.35537 -8.66308,5.09913c-5.2265,4.07201 -9.76787,10.04071 -13.86501,15.20293c-0.36123,0.45513 -6.20579,8.26629 -6.32721,8.54008c-0.75151,1.69464 -0.71854,3.53746 -1.07927,5.35582c-1.40331,7.0739 -1.12189,13.67726 0.23695,20.74059c1.03397,6.18328 3.0949,12.4903 3.79697,18.694c0.2056,1.81683 -0.38549,3.73416 0.10271,5.49621c0.38851,1.40224 1.597,2.43876 2.42197,3.63736c0.0233,0.03385 5.79427,8.20962 5.79886,8.21584c6.38394,8.65487 12.72477,18.5123 20.31259,26.1122c3.04251,3.04736 6.69457,8.33727 11.03588,9.63407c3.747,1.11928 10.10052,0.07949 13.98318,0.05662c5.35287,-0.03276 11.67604,0.27195 17.26335,-0.49655c0.25706,1.61495 0.66779,3.28246 1.18872,4.89378z" data-paper-data="{&quot;noHover&quot;:false,&quot;origItem&quot;:[&quot;Path&quot;,{&quot;applyMatrix&quot;:true,&quot;segments&quot;:[[[278.19648,209.9724],[0,0],[-0.52093,-1.61132]],[[277.09539,205.12676],[0.25706,1.61495],[-5.58731,0.7685]],[[259.82968,205.62732],[5.35287,-0.03276],[-3.88266,0.02287]],[[245.84372,205.57455],[3.747,1.11928],[-4.34131,-1.2968]],[[234.72935,195.87852],[3.04251,3.04736],[-7.58782,-7.5999]],[[214.41062,169.77646],[6.38394,8.65487],[-0.00459,-0.00622]],[[208.60861,161.5699],[0.0233,0.03385],[-0.82497,-1.1986]],[[206.18558,157.93894],[0.38851,1.40224],[-0.4882,-1.76205]],[[206.08311,152.45462],[0.2056,1.81683],[-0.70207,-6.2037]],[[202.3028,133.79138],[1.03397,6.18328],[-1.35884,-7.06333]],[[202.07849,113.05883],[-1.40331,7.0739],[0.36073,-1.81836]],[[203.19717,107.61111],[-0.75151,1.69464],[0.12142,-0.27379]],[[209.52627,99.07186],[-0.36123,0.45513],[4.09714,-5.16222]],[[223.39462,83.87064],[-5.2265,4.07201],[3.52167,-2.74376]],[[232.06009,78.77294],[-3.47348,2.58743],[2.26514,-1.68733]],[[238.29238,73.03186],[-2.43118,1.43782],[3.63876,-2.15199]],[[250.76265,69.80372],[-3.93697,1.1564],[4.5944,-1.34951]],[[263.97625,63.68351],[-4.25652,2.12752],[2.47306,-1.09195]],[[272.13189,59.83028],[-2.84913,1.19888],[-0.04104,-0.19491]],[[272.06818,59.18183],[0,0.23811],[0,-1.18262]],[[273.2172,57.04764],[-0.58959,0.32839],[-2.90756,-0.57121]],[[264.47259,55.44681],[2.91318,0.54253],[-2.51626,-0.46861]],[[256.84371,54.57455],[2.43578,0.78623],[-1.14374,-0.36918]],[[253.84371,52.57455],[1.16314,0.30259],[-1.3797,-0.35893]],[[249.56817,52.68182],[1.42553,-0.01649],[-0.93036,0.01076]],[[246.77656,52.70251],[0.93069,-0.00346],[0.98744,0.36501]],[[249.6862,53.94576],[-0.9514,-0.46634],[0,0]],[[250.80423,57.29986],[1.11804,-2.23607],[-1.11803,2.23607]],[[247.45013,58.41789],[0,0],[-4.16787,-2.13435]],[[235.2649,55.66336],[4.59549,0.5669],[-7.89869,-0.97438]],[[211.03147,52.62353],[7.74293,1.76395],[-3.09401,-0.70486]],[[200.14255,50.61494],[3.41716,-1.0388],[-5.17565,1.57338]],[[185.34518,58.01635],[4.85547,-2.27838],[-4.53277,2.12696]],[[171.4786,63.54073],[4.52205,-2.24358],[-4.40016,2.16543]],[[157.99417,68.33904],[4.43071,-1.95367],[-1.56454,0.68987]],[[153.54361,70.88972],[1.60116,-0.6],[-0.22181,0.08312]],[[145.06025,72.6329],[1.26344,-0.25344],[-0.29863,0.05991]],[[135.0146,74.63021],[0.15614,-0.01583],[-4.68785,0.47541]],[[120.56817,74.68181],[4.72565,0],[-6.01445,0]],[[101.94377,73.60258],[5.86167,1.69999],[-1.73132,-0.50211]],[[96.91558,71.61167],[1.64859,0.72922],[-0.7062,-0.31238]],[[93.33593,70.94958],[1.01186,-1.40521],[-0.58951,0.81868]],[[92.9469,73.95099],[0.28461,-0.96786],[-0.47472,1.61431]],[[91.07472,78.63896],[0.62406,-1.56266],[-1.11683,3.84301]],[[89.03588,88.58227],[0.61807,-3.71087],[-0.17318,1.03977]],[[88.03588,91.58227],[0.13315,-1.04565],[-1.00431,7.8869]],[[88.06816,116.18181],[0,-7.96297],[0,1.66667]],[[88.06816,121.18181],[0.03506,-1.6663],[-0.03216,1.52831]],[[88.20983,125.76556],[-1.499,0.29961],[2.92023,-0.58368]],[[96.73598,123.09711],[-2.92263,0.57156],[6.70566,-1.31137]],[[117.12121,121.71542],[-6.79785,0.05907],[0.89367,-0.00777]],[[127.52076,121.87041],[-0.69668,-0.24418],[1.28923,0.45186]],[[130.53867,124.64328],[-1.00597,-0.92429],[0.98436,1.65872]],[[133.49175,129.61943],[-0.6683,-1.80933],[0.63304,1.71386]],[[134.37474,135.02894],[-0.287,-1.80435],[1.35556,8.52234]],[[136.0597,160.28506],[-0.01976,-8.61991],[0.01345,5.86616]],[[131.51203,177.15881],[4.50983,-4.41043],[-1.32487,1.29567]],[[126.75279,180.03216],[1.59149,-0.94933],[-2.06997,1.23476]],[[118.43551,184.52651],[2.25609,-0.82336],[-1.07832,0.39353]],[[115.05647,185.1905],[0.8997,-0.71287],[-1.03926,0.82345]],[[113.17455,188.69501],[0.62632,-1.1687],[-3.3757,6.299]],[[110.09149,209.12647],[0.03982,-6.95838],[-0.03891,5.00754]],[[111.95038,225.42356],[-1.69875,-4.75309],[2.68914,7.52418]],[[125.61956,243.75292],[-4.29712,-6.29614],[1.86995,2.73985]],[[129.93043,250.08556],[-2.92144,-1.7536],[6.06803,3.64236]],[[150.33732,256.80306],[-6.58296,-2.22916],[7.01543,2.37561]],[[171.56815,260.68179],[-7.45122,0.01365],[4.4213,0]],[[185.24738,260.70245],[-4.37267,0.56573],[3.19975,-0.41397]],[[194.60266,258.21917],[-3.12019,0.8211],[2.97235,-0.7822]],[[203.52896,255.90801],[-2.78648,1.29702],[2.89318,-1.3467]],[[211.40952,250.47168],[-2.63377,1.80205],[6.34282,-4.33983]],[[230.50191,237.55466],[-6.39466,4.26311],[2.29338,-1.52892]],[[237.38851,232.9776],[-2.45874,1.24571],[7.04835,-3.571]],[[259.54582,225.14206],[-7.57586,2.06609],[2.59681,-0.7365]],[[267.35407,222.99638],[-2.30354,1.40697],[2.68212,-1.63819]],[[274.28587,216.60521],[-2.32552,2.1141],[1.56597,-1.42361]],[[278.98378,212.33438],[-1.56597,1.42361],[0,0]]],&quot;closed&quot;:true,&quot;fillColor&quot;:[0.99216,0,0],&quot;strokeWidth&quot;:0.5}]}" fill="url(#color-2)" stroke-width="0.25"/></g></g></svg>