<svg version="1.1" xmlns="http://www.w3.org/2000/svg" xmlns:xlink="http://www.w3.org/1999/xlink" width="1780.22964" height="596.57582" viewBox="0,0,1780.22964,596.57582"><defs><linearGradient x1="-295.77372" y1="-402.51423" x2="-295.77372" y2="-224.20085" gradientUnits="userSpaceOnUse" id="color-1"><stop offset="0" stop-color="#8ee800"/><stop offset="1" stop-color="#62c341"/></linearGradient><linearGradient x1="-533.52489" y1="-366.85153" x2="-533.52489" y2="-188.53815" gradientUnits="userSpaceOnUse" id="color-2"><stop offset="0" stop-color="#8ee800"/><stop offset="1" stop-color="#62c341"/></linearGradient><linearGradient x1="-435.45254" y1="-340.10454" x2="-435.45254" y2="-161.79111" gradientUnits="userSpaceOnUse" id="color-3"><stop offset="0" stop-color="#29e85c"/><stop offset="1" stop-color="#41822b"/></linearGradient><linearGradient x1="777.14613" y1="-403.91702" x2="777.14613" y2="-225.60365" gradientUnits="userSpaceOnUse" id="color-4"><stop offset="0" stop-color="#8ee800"/><stop offset="1" stop-color="#62c341"/></linearGradient><linearGradient x1="1014.89733" y1="-368.25433" x2="1014.89733" y2="-189.94095" gradientUnits="userSpaceOnUse" id="color-5"><stop offset="0" stop-color="#8ee800"/><stop offset="1" stop-color="#62c341"/></linearGradient><linearGradient x1="916.82495" y1="-341.50733" x2="916.82495" y2="-163.19391" gradientUnits="userSpaceOnUse" id="color-6"><stop offset="0" stop-color="#29e85c"/><stop offset="1" stop-color="#41822b"/></linearGradient></defs><g transform="translate(649.42862,403.91703)"><g data-paper-data="{&quot;isPaintingLayer&quot;:true}" fill-rule="nonzero" stroke-width="0" stroke-linecap="butt" stroke-linejoin="miter" stroke-miterlimit="10" stroke-dasharray="" stroke-dashoffset="0" style="mix-blend-mode: normal"><path d="M-206.61699,-313.35754c0,49.23987 16.54905,216.94795 -32.69078,216.94795c-49.23987,0 -145.6226,-167.70808 -145.6226,-216.94795c0,-49.23987 39.91682,-89.15669 89.15669,-89.15669c49.23987,0 89.15669,39.91682 89.15669,89.15669z" fill="url(#color-1)" stroke="none"/><path d="M-444.3682,-277.69485c0,49.23987 -39.91682,89.15669 -89.15669,89.15669c-49.23987,0 -89.15669,-39.91682 -89.15669,-89.15669c0,-49.23987 39.91682,-89.15669 89.15669,-89.15669c49.23987,0 89.15669,39.91682 89.15669,89.15673z" fill="url(#color-2)" stroke="none"/><path d="M-346.29585,-250.94784c0,49.23987 -39.91682,89.15673 -89.15669,89.15673c-49.23987,0 -89.15669,-39.91686 -89.15669,-89.15673c0,-49.23987 39.91682,-89.15669 89.15669,-89.15669c49.23987,0 89.15669,39.91682 89.15669,89.15669z" fill="url(#color-3)" stroke="none"/><path d="M-649.42862,188.89187v-454.69916h447.32568l83.21291,454.69916z" fill="#ff4c0b" stroke="#000000"/><path d="M-649.42862,192.65879v-308.88726h470.86473l60.27069,305.12035z" fill="#cd3d08" stroke="none"/><g stroke="none"><path d="M777.14613,-403.91702c49.23987,0 89.15669,39.91682 89.15669,89.15669c0,49.23987 -96.38273,216.94795 -145.6226,216.94795c-49.23987,0 -32.69082,-167.70808 -32.69082,-216.94795c0,-49.23987 39.91686,-89.15669 89.15669,-89.15669z" data-paper-data="{&quot;index&quot;:null}" fill="url(#color-4)"/><path d="M1014.89733,-368.25433c49.23987,0 89.15669,39.91682 89.15669,89.15673c0,49.23987 -39.91679,89.15669 -89.15669,89.15669c-49.23987,0 -89.15669,-39.91682 -89.15669,-89.15669c0,-49.23987 39.91682,-89.15669 89.15669,-89.15669z" data-paper-data="{&quot;index&quot;:null}" fill="url(#color-5)"/><path d="M916.82495,-341.50733c49.23987,0 89.15669,39.91682 89.15669,89.15669c0,49.23987 -39.91682,89.15673 -89.15669,89.15673c-49.23987,0 -89.15669,-39.91686 -89.15669,-89.15673c0,-49.23987 39.91682,-89.15669 89.15669,-89.15669z" data-paper-data="{&quot;index&quot;:null}" fill="url(#color-6)"/></g><g><path d="M600.26244,187.48908l83.21295,-454.69916h447.32564v454.69916z" data-paper-data="{&quot;index&quot;:null}" fill="#ff4c0b" stroke="#000000"/><path d="M596.49551,187.48908l60.27069,-305.12035h470.86473v308.88726z" data-paper-data="{&quot;index&quot;:null}" fill="#cd3d08" stroke="none"/></g></g></g></svg>